<svg xmlns="http://www.w3.org/2000/svg" viewBox="0 0 170 40" fill="#000">
  <path d="M30.9 10.8c-1.7 2-4.3 3.5-6.9 3.3-.3-2.7.9-5.5 2.5-7.3C28.2 4.7 31 3.3 33.3 3.2c.3 2.8-.8 5.6-2.4 7.6zm2.4 3.9c-3.8-.2-7.1 2.2-8.9 2.2-1.8 0-4.6-2.1-7.6-2-3.9.1-7.5 2.3-9.5 5.8C3.2 27 5.1 36.8 9.2 42c2-2.9 3.4-5.8 6.4-5.8 2.9-.1 4 1.9 7.5 1.9s4.4-1.9 7.5-1.9 5 2.8 6.5 5.7c-2.2 1.3-4.5 3.8-4.5 7.7 0 4.5 3.2 7.7 4.5 8.4-.2.6-4.8 12-10 12-2.8 0-3.7-1.9-7.3-1.9-3.6 0-5.1 1.9-7.6 1.9C7.5 70 .5 58.6.5 47.4c0-11 6.7-17 13.3-17 3.5 0 6.4 2.3 8.4 2.3 1.9 0 5.2-2.5 9.1-2.3 1.5.1 5.9.6 8.7 4.6-.7.5-5.2 3.2-5.2 7.8 0 5.6 4.9 7.5 5 7.5-.1.2-3.3 10.2-8.7 10.2" transform="scale(0.45) translate(5, -3)"/>
  <text x="40" y="28" font-family="SF Pro Display, -apple-system, Helvetica Neue, Arial, sans-serif" font-size="24" font-weight="600" fill="#000">Apple</text>
</svg>